{
	"patcher" : 	{
		"fileversion" : 1,
		"rect" : [ 20.0, 74.0, 293.0, 265.0 ],
		"bglocked" : 0,
		"defrect" : [ 20.0, 74.0, 293.0, 265.0 ],
		"openrect" : [ 0.0, 0.0, 0.0, 0.0 ],
		"openinpresentation" : 0,
		"default_fontsize" : 10.0,
		"default_fontface" : 0,
		"default_fontname" : "Arial",
		"gridonopen" : 0,
		"gridsize" : [ 15.0, 15.0 ],
		"gridsnaponopen" : 0,
		"toolbarvisible" : 1,
		"boxanimatetime" : 200,
		"imprint" : 0,
		"boxes" : [ 			{
				"box" : 				{
					"maxclass" : "newobj",
					"text" : "v #1radioID",
					"patching_rect" : [ 143.0, 113.0, 57.0, 17.0 ],
					"id" : "obj-9",
					"fontname" : "Arial",
					"numinlets" : 1,
					"numoutlets" : 1,
					"outlettype" : [ "" ],
					"fontsize" : 9.0
				}

			}
, 			{
				"box" : 				{
					"maxclass" : "newobj",
					"text" : "t i b",
					"patching_rect" : [ 76.0, 29.0, 32.5, 17.0 ],
					"id" : "obj-8",
					"fontname" : "Arial",
					"numinlets" : 1,
					"numoutlets" : 2,
					"outlettype" : [ "int", "bang" ],
					"fontsize" : 9.0
				}

			}
, 			{
				"box" : 				{
					"maxclass" : "newobj",
					"text" : "* 180",
					"patching_rect" : [ 76.0, 54.0, 38.0, 17.0 ],
					"id" : "obj-1",
					"fontname" : "Arial",
					"numinlets" : 2,
					"numoutlets" : 1,
					"outlettype" : [ "int" ],
					"fontsize" : 9.0
				}

			}
, 			{
				"box" : 				{
					"maxclass" : "newobj",
					"text" : "+ 56",
					"patching_rect" : [ 93.0, 117.0, 31.0, 17.0 ],
					"id" : "obj-2",
					"fontname" : "Arial",
					"numinlets" : 2,
					"numoutlets" : 1,
					"outlettype" : [ "int" ],
					"fontsize" : 9.0
				}

			}
, 			{
				"box" : 				{
					"maxclass" : "newobj",
					"text" : "pack i i i i i",
					"patching_rect" : [ 57.0, 143.0, 73.0, 17.0 ],
					"id" : "obj-3",
					"fontname" : "Arial",
					"numinlets" : 5,
					"numoutlets" : 1,
					"outlettype" : [ "" ],
					"fontsize" : 9.0
				}

			}
, 			{
				"box" : 				{
					"maxclass" : "newobj",
					"text" : "+ 117",
					"patching_rect" : [ 78.0, 82.0, 37.0, 17.0 ],
					"id" : "obj-4",
					"fontname" : "Arial",
					"numinlets" : 2,
					"numoutlets" : 1,
					"outlettype" : [ "int" ],
					"fontsize" : 9.0
				}

			}
, 			{
				"box" : 				{
					"maxclass" : "message",
					"text" : "paintoval $1 463 $2 518 $3 $4 $5",
					"patching_rect" : [ 52.0, 173.0, 144.0, 15.0 ],
					"id" : "obj-5",
					"fontname" : "Arial",
					"numinlets" : 2,
					"numoutlets" : 1,
					"outlettype" : [ "" ],
					"fontsize" : 9.0
				}

			}
, 			{
				"box" : 				{
					"maxclass" : "inlet",
					"patching_rect" : [ 76.0, 5.0, 15.0, 15.0 ],
					"id" : "obj-6",
					"numinlets" : 0,
					"numoutlets" : 1,
					"outlettype" : [ "" ],
					"comment" : ""
				}

			}
, 			{
				"box" : 				{
					"maxclass" : "outlet",
					"patching_rect" : [ 52.0, 206.0, 15.0, 15.0 ],
					"id" : "obj-7",
					"numinlets" : 1,
					"numoutlets" : 0,
					"comment" : ""
				}

			}
 ],
		"lines" : [ 			{
				"patchline" : 				{
					"source" : [ "obj-9", 0 ],
					"destination" : [ "obj-3", 2 ],
					"hidden" : 0,
					"midpoints" : [  ]
				}

			}
, 			{
				"patchline" : 				{
					"source" : [ "obj-8", 1 ],
					"destination" : [ "obj-9", 0 ],
					"hidden" : 0,
					"midpoints" : [  ]
				}

			}
, 			{
				"patchline" : 				{
					"source" : [ "obj-8", 0 ],
					"destination" : [ "obj-1", 0 ],
					"hidden" : 0,
					"midpoints" : [  ]
				}

			}
, 			{
				"patchline" : 				{
					"source" : [ "obj-6", 0 ],
					"destination" : [ "obj-8", 0 ],
					"hidden" : 0,
					"midpoints" : [  ]
				}

			}
, 			{
				"patchline" : 				{
					"source" : [ "obj-3", 0 ],
					"destination" : [ "obj-5", 0 ],
					"hidden" : 0,
					"midpoints" : [  ]
				}

			}
, 			{
				"patchline" : 				{
					"source" : [ "obj-4", 0 ],
					"destination" : [ "obj-3", 0 ],
					"hidden" : 0,
					"midpoints" : [  ]
				}

			}
, 			{
				"patchline" : 				{
					"source" : [ "obj-2", 0 ],
					"destination" : [ "obj-3", 1 ],
					"hidden" : 0,
					"midpoints" : [  ]
				}

			}
, 			{
				"patchline" : 				{
					"source" : [ "obj-4", 0 ],
					"destination" : [ "obj-2", 0 ],
					"hidden" : 0,
					"midpoints" : [  ]
				}

			}
, 			{
				"patchline" : 				{
					"source" : [ "obj-1", 0 ],
					"destination" : [ "obj-4", 0 ],
					"hidden" : 0,
					"midpoints" : [  ]
				}

			}
, 			{
				"patchline" : 				{
					"source" : [ "obj-5", 0 ],
					"destination" : [ "obj-7", 0 ],
					"hidden" : 0,
					"midpoints" : [  ]
				}

			}
 ]
	}

}
